<svg width="18" height="18" viewBox="0 0 18 18" fill="none" xmlns="http://www.w3.org/2000/svg">
					<path d="M2.25 9H3M9 2.25V3M15 9H15.75M4.2 4.2L4.725 4.725M13.8 4.2L13.275 4.725M7.27496 12.75H10.725M6.75 12C6.12035 11.5278 5.65525 10.8694 5.42057 10.1181C5.1859 9.36687 5.19355 8.56082 5.44244 7.81415C5.69133 7.06748 6.16884 6.41804 6.80734 5.95784C7.44583 5.49764 8.21294 5.25 9 5.25C9.78706 5.25 10.5542 5.49764 11.1927 5.95784C11.8312 6.41804 12.3087 7.06748 12.5576 7.81415C12.8065 8.56082 12.8141 9.36687 12.5794 10.1181C12.3448 10.8694 11.8796 11.5278 11.25 12C10.9572 12.2899 10.7367 12.6446 10.6064 13.0355C10.4761 13.4264 10.4397 13.8424 10.5 14.25C10.5 14.6478 10.342 15.0294 10.0607 15.3107C9.77936 15.592 9.39782 15.75 9 15.75C8.60218 15.75 8.22064 15.592 7.93934 15.3107C7.65804 15.0294 7.5 14.6478 7.5 14.25C7.56034 13.8424 7.52389 13.4264 7.3936 13.0355C7.2633 12.6446 7.04282 12.2899 6.75 12Z" stroke="currentColor" stroke-width="1.2" stroke-linecap="round" stroke-linejoin="round"></path>
				</svg>